<svg xmlns="http://www.w3.org/2000/svg" xmlns:xlink="http://www.w3.org/1999/xlink" xmlns:lucid="lucid" width="1103.01" height="840"><g transform="translate(20 20)" lucid:page-tab-id="0_0"><path d="M0 0h840v800H0z" stroke="#232f3e" stroke-width="2" fill="#fff" fill-opacity="0"/><path d="M0 0h56v56H0V0z" stroke="#fff" stroke-opacity="0" fill="#232f3e"/><path d="M40.88 41.22h-25c-4.13.05-7.57-3.1-7.9-7.2v-.64c-.15-3.4 1.97-6.38 5.25-7.36v-.66c.12-4.22 2.44-7.75 6.24-9.57 4.12-1.86 8.73-.96 11.8 2.3 1.1 1.1 1.85 2.2 2.45 3.6 1.2-1 2.72-1.32 4.24-.9 2.24.8 3.68 2.74 3.76 5.1 3.68.65 6.32 3.8 6.28 7.56 0 7.07-7.04 7.73-7.12 7.76zm-26.7-13.88c-2.83.6-4.75 3.14-4.6 6.04v.53c.3 3.33 3.1 5.84 6.4 5.76h24.98c3.04-.3 5.4-2.64 5.68-5.7.28-3.43-2.24-6.5-5.68-6.78-.44-.05-.72-.44-.64-.87.08-1.83-1-3.44-2.72-4.13-1.32-.37-2.64.13-3.44 1.24-.2.25-.44.38-.76.33-.28-.05-.48-.24-.6-.5-.6-1.6-1.4-2.85-2.6-4.04-2.68-2.8-6.6-3.6-10.13-2-3.24 1.6-5.2 4.63-5.32 8.24-.04.4-.04.74 0 1.14.04.4-.2.76-.6.84z" stroke="#fff" stroke-opacity="0" fill="#fff"/><use xlink:href="#a" transform="matrix(1,0,0,1,71,20) translate(0 14.4)"/><use xlink:href="#b" transform="matrix(1,0,0,1,71,20) translate(45.3 14.4)"/><path d="M40 80h740v680H40z" stroke="#248814" stroke-width="2" fill="#fff" fill-opacity="0"/><path d="M40 80h56v56H40V80z" stroke="#fff" stroke-opacity="0" fill="#248814"/><path d="M71.76 108.3h-1.18v-1.1c-.12-1.73-1.48-3.07-3.2-3.2-1.9-.13-3.54 1.3-3.67 3.2v1.07h-1.17c-.44 0-.8.36-.8.8v6.13c0 .44.36.8.8.8h9.23c.44 0 .8-.36.8-.8v-6.1c0-.44-.36-.8-.8-.8zm-6.4-1.06c.1-1.02 1-1.77 2-1.67.9.08 1.58.77 1.67 1.67v1.06H65.3zm5.65 7.08h-7.67v-4.42h7.63z" stroke="#fff" stroke-opacity="0" fill="#fff"/><path d="M82.27 105.74c-.08-2.44-1.58-4.47-3.87-5.3-1.58-.46-3.16-.13-4.4.9-.68-1.44-1.47-2.6-2.6-3.75-3.24-3.36-7.94-4.3-12.18-2.4-4.04 1.9-6.4 5.63-6.54 10.05v.7c-3.4.98-5.66 4.08-5.5 7.65v.63c.4 4.28 3.92 7.52 8.2 7.47h26s7.42-.63 7.42-8.1c.04-3.9-2.66-7.2-6.53-7.86zm-.96 14.4H55.4c-3.47.05-6.3-2.53-6.6-5.97v-.52c-.15-3.05 1.93-5.7 4.92-6.3.38-.12.63-.48.6-.9-.06-.4-.06-.73 0-1.14.07-3.78 2.1-6.94 5.52-8.6 1.25-.56 2.4-.8 3.83-.84 2.62.08 4.87 1.04 6.7 2.94 1.25 1.3 2.04 2.6 2.62 4.3.03.15.1.28.24.37.37.27.87.2 1.12-.17.83-1.18 2.25-1.67 3.62-1.3 1.8.72 2.87 2.4 2.83 4.32-.07.4.22.82.64.9 3.57.36 6.2 3.55 5.82 7.12-.3 3.13-2.7 5.52-5.82 5.85z" stroke="#fff" stroke-opacity="0" fill="#fff"/><use xlink:href="#c" transform="matrix(1,0,0,1,111,100) translate(0 14.4)"/><use xlink:href="#d" transform="matrix(1,0,0,1,111,100) translate(55.5 14.4)"/><use xlink:href="#e" transform="matrix(1,0,0,1,111,100) translate(116.4 14.4)"/><path d="M80 160h460v260H80z" fill="#248814" fill-opacity=".13"/><path d="M80 160h56v56H80v-56z" stroke="#fff" stroke-opacity="0" fill="#248814"/><path d="M123.38 182.18c-.15-.17-.34-.25-.56-.25h-5.15v-5.58c-.03-2.54-.96-4.7-2.84-6.4-1.9-1.84-4.15-2.75-6.77-2.75-2.65 0-4.9.83-6.8 2.62-1.9 1.7-2.87 3.87-2.9 6.4v5.66H93.2c-.24 0-.43.1-.58.25-.16.17-.22.34-.22.6V208c0 .43.34.8.8.8h29.6c.46 0 .8-.37.8-.8v-25.28c0-.2-.06-.38-.22-.54zm-23.46-5.9c.03-2.13.8-3.88 2.37-5.3 1.6-1.5 3.52-2.2 5.73-2.2 2.22 0 4.12.75 5.7 2.25 1.54 1.4 2.32 3.2 2.32 5.32v5.58H99.9zm22.1 30.94H93.98v-23.7h28z" stroke="#fff" stroke-opacity="0" fill="#fff"/><path d="M107.2 197.3v6.25h1.6v-6.23c2.13-.4 3.62-2.2 3.63-4.35 0-2.43-1.97-4.4-4.4-4.43-2.2-.03-4.06 1.5-4.44 3.68-.42 2.4 1.2 4.68 3.6 5.1zm.82-7.15c.78 0 1.44.27 2 .82.54.56.82 1.22.8 2 .03 1.55-1.2 2.8-2.74 2.82h-.06c-1.56.1-2.92-1.06-3.04-2.62-.12-1.56 1.05-2.93 2.6-3.03.16-.02.28-.02.44 0z" stroke="#fff" stroke-opacity="0" fill="#fff"/><use xlink:href="#f" transform="matrix(1,0,0,1,151,180) translate(0 14.4)"/><use xlink:href="#g" transform="matrix(1,0,0,1,151,180) translate(53.900000000000006 14.4)"/><path d="M480 280c-22.08 0-40-17.92-40-40s17.92-40 40-40 40 17.92 40 40-17.92 40-40 40zm0-76.56c-20.24 0-36.56 16.32-36.56 36.56 0 20.24 16.32 36.56 36.56 36.56 20.24 0 36.56-16.32 36.56-36.56 0-20.24-16.32-36.56-36.56-36.56z" stroke="#fff" stroke-opacity="0" fill="#693cc5"/><path d="M484.8 262.45h-14.04v-3.42h12.33v-34.86h-12.34v-3.42h14.03c.93 0 1.7.75 1.7 1.7v38.3c0 .95-.77 1.7-1.7 1.7z" stroke="#fff" stroke-opacity="0" fill="#693cc5"/><path d="M470.42 239.9h30.3v3.4h-30.3v-3.4zM459.25 230.54c-.27 0-.5-.05-.73-.18-.6-.28-.97-.86-.97-1.52v-12.77c0-.67.36-1.24.97-1.53.6-.3 1.27-.23 1.8.2l7.97 6.38c.4.34.64.8.64 1.33s-.23 1-.65 1.32l-7.97 6.4c-.32.25-.67.37-1.08.37zm1.7-10.94v5.7l3.56-2.85zM459.25 249.7c-.27 0-.5-.06-.73-.2-.6-.27-.97-.85-.97-1.5V235.2c0-.68.36-1.24.97-1.53.6-.3 1.27-.24 1.8.18l7.97 6.4c.4.33.64.78.64 1.32 0 .53-.23 1-.65 1.32l-7.97 6.4c-.32.25-.67.37-1.08.37zm1.7-10.95v5.7l3.56-2.85z" stroke="#fff" stroke-opacity="0" fill="#693cc5"/><path d="M502.33 251.27c-.23 0-.42-.04-.64-.12-.67-.27-1.07-.87-1.07-1.6v-15.94c0-.92.75-1.7 1.7-1.7.46 0 .87.18 1.22.5l7.98 8c.65.66.65 1.73 0 2.4l-7.98 7.98c-.35.33-.74.5-1.22.5zm1.7-13.6v7.73l3.9-3.87zM459.26 267.23c-.28 0-.5-.04-.74-.17-.6-.28-.97-.86-.97-1.52v-12.77c0-.95.75-1.7 1.7-1.7.4 0 .76.12 1.08.38l7.96 6.37c.72.58.84 1.67.25 2.4-.08.1-.16.17-.26.25l-7.97 6.4c-.32.25-.68.36-1.07.36zm1.7-10.93v5.7l3.55-2.85z" stroke="#fff" stroke-opacity="0" fill="#693cc5"/><use xlink:href="#h" transform="matrix(1,0,0,1,410,289) translate(16.924999999999997 14.4)"/><use xlink:href="#i" transform="matrix(1,0,0,1,410,289) translate(56.125 14.4)"/><path d="M80 360h240v60H80z" stroke="#000" stroke-opacity="0" stroke-width="2" fill="#fff" fill-opacity="0"/><use xlink:href="#j" transform="matrix(1,0,0,1,85.00000000000003,365) translate(56.14999999999999 17.525)"/><use xlink:href="#k" transform="matrix(1,0,0,1,85.00000000000003,365) translate(115.05 17.525)"/><use xlink:href="#l" transform="matrix(1,0,0,1,85.00000000000003,365) translate(70 39.125)"/><path d="M720 239.36c0 20.08-17.92 36.37-40 36.37s-40-16.3-40-36.37c0-20.08 17.92-36.38 40-36.38s40 16.3 40 36.38z" fill="#9d5025"/><path d="M640 236.37h80v2.98h-80v-2.98z" fill="#9d5025"/><path d="M720 236.37c0 20.08-17.92 36.38-40 36.38s-40-16.3-40-36.38c0-20.07 17.92-36.37 40-36.37s40 16.3 40 36.37z" fill="#f58536"/><path d="M649.84 240v-.96c.3-4.4 3-8.08 7.4-10 .43-8.13 8.03-14.4 17-13.97 5.6.24 10.3 2.83 13.14 7.24 4.58-1.74 9.82.2 11.75 4.32.3.6.48 1.08.6 1.68 6.03 1.08 10.37 6.33 10.37 10.74v.88c0 5.4-6.15 10.1-13.14 10.1h-34.04c-6.93.05-13.08-4.68-13.08-10.03z" fill="#fff"/><path d="M688.2 226.18l-2.56 1.6-1.3-2.56c-2-4-6.05-6.45-10.9-6.48h-.05c-6.63 0-12.05 4.9-12.05 10.97v2.05l-1.87.5c-3.18 1.16-5.27 3.7-5.53 6.8v.9c0 2.94 3.96 6.36 9.02 6.36h34.08c5.1 0 9-3.4 9-6.36v-.88c0-2.98-3.63-6.86-7.85-7.17l-2.3-.17-.15-2.07c0-.88-.32-1.6-.84-2.32-1.5-2-4.52-2.5-6.7-1.13z" fill="#f58536"/><use xlink:href="#m" transform="matrix(1,0,0,1,640,275.73883357981003) translate(9.524999999999999 14.4)"/><use xlink:href="#i" transform="matrix(1,0,0,1,640,275.73883357981003) translate(6.524999999999999 36)"/><path d="M80 460h460v260H80z" fill="#147eba" fill-opacity=".13"/><path d="M80 460h56v56H80v-56z" stroke="#fff" stroke-opacity="0" fill="#147eba"/><path d="M123.38 482.18c-.15-.17-.34-.25-.56-.25h-5.15v-5.58c-.03-2.54-.96-4.7-2.84-6.4-1.9-1.84-4.15-2.75-6.77-2.75-2.65 0-4.9.83-6.8 2.62-1.9 1.7-2.87 3.87-2.9 6.4v5.66H93.2c-.24 0-.43.1-.58.25-.16.17-.22.34-.22.6V508c0 .43.34.8.8.8h29.6c.46 0 .8-.37.8-.8v-25.28c0-.2-.06-.38-.22-.54zm-23.46-5.9c.03-2.13.8-3.88 2.37-5.3 1.6-1.5 3.52-2.2 5.73-2.2 2.22 0 4.12.75 5.7 2.25 1.54 1.4 2.32 3.2 2.32 5.32v5.58H99.9zm22.1 30.94H93.98v-23.7h28z" stroke="#fff" stroke-opacity="0" fill="#fff"/><path d="M107.2 497.3v6.25h1.6v-6.23c2.13-.4 3.62-2.2 3.63-4.35 0-2.43-1.97-4.4-4.4-4.43-2.2-.03-4.06 1.5-4.44 3.68-.42 2.4 1.2 4.68 3.6 5.1zm.82-7.15c.78 0 1.44.27 2 .82.54.56.82 1.22.8 2 .03 1.55-1.2 2.8-2.74 2.82h-.06c-1.56.1-2.92-1.06-3.04-2.62-.12-1.56 1.05-2.93 2.6-3.03.16-.02.28-.02.44 0z" stroke="#fff" stroke-opacity="0" fill="#fff"/><use xlink:href="#n" transform="matrix(1,0,0,1,151,480) translate(0 14.4)"/><use xlink:href="#o" transform="matrix(1,0,0,1,151,480) translate(60.9 14.4)"/><path d="M80 659h240v60H80z" stroke="#000" stroke-opacity="0" stroke-width="2" fill="#fff" fill-opacity="0"/><use xlink:href="#p" transform="matrix(1,0,0,1,85.00000000000003,664) translate(53.12499999999999 17.525)"/><use xlink:href="#k" transform="matrix(1,0,0,1,85.00000000000003,664) translate(118.07499999999999 17.525)"/><use xlink:href="#q" transform="matrix(1,0,0,1,85.00000000000003,664) translate(70 39.125)"/><path d="M257.63 605.2v-9.18l-3.78-3.93-2.48-2.6 2.48-2.57 3.78-3.92v-9.46h4.4v-2.98L250 561.93l-12.04 8.63v2.98h4.4V583l3.8 3.93 2.47 2.58-2.48 2.6-3.78 3.92v9.2l-4.4-2.8v3.02L250 618l12.03-12.56v-3.03l-4.4 2.8z" fill="#9d5025"/><path d="M243 589.5v-3l-12.03-3.55H220v13.1h10.97v6L243 589.5zM280 582.95H269L257 586.5v3L269 602.05v-6H280v-13.1z" fill="#9d5025"/><path d="M257.63 602.22V593l-3.78-3.94-2.48-2.57 2.48-2.63 3.78-3.87v-9.46h4.4L250 558l-12.04 12.54h4.4V580l3.8 3.87 2.47 2.62-2.48 2.56-3.78 3.93V602.44h-4.4L250 615l12.03-12.55h-4.4v-.23z" fill="#f58536"/><path d="M243 586.5l-12.03-12.56v6H220v13.1h10.97v6L243 586.5zM280 579.94H269v-6L257 586.5 269 599.03v-6H280v-13.1z" fill="#f58536"/><use xlink:href="#r" transform="matrix(1,0,0,1,220,618) translate(11.05 14.4)"/><use xlink:href="#s" transform="matrix(1,0,0,1,220,618) translate(-8.450000000000003 36)"/><path d="M139.3 584.45h36.17c4.52 0 4.52 0 4.52 3.36v26.84c0 3.35 0 3.35-4.53 3.35H139.3c-4.53 0-4.53 0-4.53-3.36V587.8c0-3.35 0-3.35 4.52-3.35zM140.67 558.77h-36.15c-2.5 0-4.52 1.5-4.52 3.35v26.82c0 1.85 2.03 3.35 4.52 3.35h8.36v-17.34c0-3.68 4.02-6.7 9.04-6.7h23.27v-6.14c0-1.84-2.04-3.35-4.53-3.35z" fill="#9d5025"/><path d="M158.06 571.6H121.9c-2.48 0-4.52 1.52-4.52 3.36v26.82c0 1.85 2.04 3.36 4.52 3.36h8.36V587.8c0-3.68 4.07-6.7 9.04-6.7h23.28v-6.14c0-1.84-2.04-3.35-4.52-3.35z" fill="#9d5025"/><path d="M139.3 581.68h36.17c4.52 0 4.52 0 4.52 3.35v26.84c0 3.35 0 3.35-4.53 3.35H139.3c-4.53 0-4.53 0-4.53-3.35v-26.84c0-3.35 0-3.35 4.52-3.35zM140.67 556h-36.15c-2.5 0-4.52 1.5-4.52 3.35v26.82c0 1.84 2.03 3.35 4.52 3.35h8.36V572.2c0-3.7 4.02-6.7 9.04-6.7h23.27v-6.15c0-1.84-2.04-3.35-4.53-3.35z" fill="#f58536"/><path d="M158.06 568.84H121.9c-2.48 0-4.52 1.5-4.52 3.35V599c0 1.86 2.04 3.36 4.52 3.36h8.36v-17.33c0-3.7 4.07-6.7 9.04-6.7h23.28v-6.14c0-1.85-2.04-3.36-4.52-3.36z" fill="#f58536"/><use xlink:href="#r" transform="matrix(1,0,0,1,100,618) translate(21.05 14.4)"/><use xlink:href="#t" transform="matrix(1,0,0,1,100,618) translate(9.549999999999997 36)"/><path d="M721 238.67h190.78" stroke="#000" stroke-width="2" fill="none"/><path d="M721.03 239.67h-1.05l.02-.3v-1.7h1.03z"/><path d="M927.05 238.67l-14.27 4.64v-9.26z" stroke="#000" stroke-width="2"/><path d="M949.96 265.63c-11 0-19.95-8.95-19.95-20 0-8.84 5.42-16.3 13.8-19.02-.5-25.97 32.76-30.97 46.06-20.97 6.65-15 39.9-10 39.9 5 19.95-5 39.9 15 26.6 40 13.3 20 0 45-26.6 35-6.65 13-33.25 13-39.9 0-13.3 10-39.9 5-39.9-20z" stroke="#7d360a" stroke-width="2" fill="#f96b13"/><path d="M680 580c-22.08 0-40-17.92-40-40s17.92-40 40-40 40 17.92 40 40-17.92 40-40 40zm0-76.56c-20.24 0-36.56 16.32-36.56 36.56 0 20.24 16.32 36.56 36.56 36.56 20.24 0 36.56-16.32 36.56-36.56 0-20.24-16.32-36.56-36.56-36.56z" stroke="#fff" stroke-opacity="0" fill="#693cc5"/><path d="M686.63 518.66l-6.63-7.73-6.63 7.73-2.58-2.22 7.9-9.25c.62-.72 1.7-.8 2.4-.2l.2.2 7.9 9.24z" stroke="#fff" stroke-opacity="0" fill="#693cc5"/><path d="M678.3 509.57h3.4v60.85h-3.4v-60.85z" stroke="#fff" stroke-opacity="0" fill="#693cc5"/><path d="M680 573.4c-.47 0-.88-.17-1.2-.5l-7.92-7.93 2.4-2.4 6.72 6.8 6.7-6.8 2.42 2.4-7.92 7.93c-.32.33-.73.5-1.2.5zM668.08 549.12l-2.5-2.3 6.73-6.82-6.72-6.7 2.5-2.42 7.92 7.92c.67.65.67 1.73 0 2.4zM692 549.12l-7.92-7.92c-.66-.65-.67-1.73 0-2.4l7.92-7.92 2.42 2.4-6.73 6.72 6.72 6.8z" stroke="#fff" stroke-opacity="0" fill="#693cc5"/><path d="M685.28 538.3h29.05v3.4h-29.05v-3.4zM645.67 538.3h29.05v3.4h-29.05v-3.4z" stroke="#fff" stroke-opacity="0" fill="#693cc5"/><use xlink:href="#u" transform="matrix(1,0,0,1,610,589) translate(43.05 14.4)"/><path d="M250 557v-17h371.5" stroke="#000" stroke-width="2" fill="none"/><path d="M251 559.04l-1-1.04-1 1.04v-2.06h2z"/><path d="M636.76 540l-14.26 4.64v-9.28z" stroke="#000" stroke-width="2"/><path d="M140 555v-15h481.5" stroke="#000" stroke-width="2" fill="none"/><path d="M141 556.02l-.33-.02H139v-1.03h2z"/><path d="M636.76 540l-14.26 4.64v-9.28z" stroke="#000" stroke-width="2"/><path d="M680 499V390H480v-91.5" stroke="#000" stroke-width="2" fill="none"/><path d="M681 500.06l-1-.06-1 .04v-1.07h2z"/><path d="M480 283.24l4.64 14.26h-9.28z" stroke="#000" stroke-width="2"/><path d="M521 240h100.52" stroke="#000" stroke-width="2" fill="none"/><path d="M521.03 241h-1.1l.07-1-.04-1h1.07z"/><path d="M636.8 240l-14.28 4.64v-9.28z" stroke="#000" stroke-width="2"/><defs><path fill="#232f3e" d="M205 0l-28-72H64L36 0H1l101-248h38L239 0h-34zm-38-99l-47-123c-12 45-31 82-46 123h93" id="v"/><path fill="#232f3e" d="M266 0h-40l-56-210L115 0H75L2-248h35L96-30l15-64 43-154h32l59 218 59-218h35" id="w"/><path fill="#232f3e" d="M185-189c-5-48-123-54-124 2 14 75 158 14 163 119 3 78-121 87-175 55-17-10-28-26-33-46l33-7c5 56 141 63 141-1 0-78-155-14-162-118-5-82 145-84 179-34 5 7 8 16 11 25" id="x"/><g id="a"><use transform="matrix(0.05,0,0,0.05,0,0)" xlink:href="#v"/><use transform="matrix(0.05,0,0,0.05,11.35,0)" xlink:href="#w"/><use transform="matrix(0.05,0,0,0.05,28.299999999999997,0)" xlink:href="#x"/></g><path fill="#232f3e" d="M212-179c-10-28-35-45-73-45-59 0-87 40-87 99 0 60 29 101 89 101 43 0 62-24 78-52l27 14C228-24 195 4 139 4 59 4 22-46 18-125c-6-104 99-153 187-111 19 9 31 26 39 46" id="y"/><path fill="#232f3e" d="M24 0v-261h32V0H24" id="z"/><path fill="#232f3e" d="M100-194c62-1 85 37 85 99 1 63-27 99-86 99S16-35 15-95c0-66 28-99 85-99zM99-20c44 1 53-31 53-75 0-43-8-75-51-75s-53 32-53 75 10 74 51 75" id="A"/><path fill="#232f3e" d="M84 4C-5 8 30-112 23-190h32v120c0 31 7 50 39 49 72-2 45-101 50-169h31l1 190h-30c-1-10 1-25-2-33-11 22-28 36-60 37" id="B"/><path fill="#232f3e" d="M85-194c31 0 48 13 60 33l-1-100h32l1 261h-30c-2-10 0-23-3-31C134-8 116 4 85 4 32 4 16-35 15-94c0-66 23-100 70-100zm9 24c-40 0-46 34-46 75 0 40 6 74 45 74 42 0 51-32 51-76 0-42-9-74-50-73" id="C"/><g id="b"><use transform="matrix(0.05,0,0,0.05,0,0)" xlink:href="#y"/><use transform="matrix(0.05,0,0,0.05,12.950000000000001,0)" xlink:href="#z"/><use transform="matrix(0.05,0,0,0.05,16.900000000000002,0)" xlink:href="#A"/><use transform="matrix(0.05,0,0,0.05,26.900000000000002,0)" xlink:href="#B"/><use transform="matrix(0.05,0,0,0.05,36.900000000000006,0)" xlink:href="#C"/></g><path fill="#248814" d="M137 0h-34L2-248h35l83 218 83-218h36" id="D"/><path fill="#248814" d="M24-231v-30h32v30H24zM24 0v-190h32V0H24" id="E"/><path fill="#248814" d="M114-163C36-179 61-72 57 0H25l-1-190h30c1 12-1 29 2 39 6-27 23-49 58-41v29" id="F"/><path fill="#248814" d="M59-47c-2 24 18 29 38 22v24C64 9 27 4 27-40v-127H5v-23h24l9-43h21v43h35v23H59v120" id="G"/><path fill="#248814" d="M84 4C-5 8 30-112 23-190h32v120c0 31 7 50 39 49 72-2 45-101 50-169h31l1 190h-30c-1-10 1-25-2-33-11 22-28 36-60 37" id="H"/><path fill="#248814" d="M141-36C126-15 110 5 73 4 37 3 15-17 15-53c-1-64 63-63 125-63 3-35-9-54-41-54-24 1-41 7-42 31l-33-3c5-37 33-52 76-52 45 0 72 20 72 64v82c-1 20 7 32 28 27v20c-31 9-61-2-59-35zM48-53c0 20 12 33 32 33 41-3 63-29 60-74-43 2-92-5-92 41" id="I"/><path fill="#248814" d="M24 0v-261h32V0H24" id="J"/><g id="c"><use transform="matrix(0.05,0,0,0.05,0,0)" xlink:href="#D"/><use transform="matrix(0.05,0,0,0.05,11.65,0)" xlink:href="#E"/><use transform="matrix(0.05,0,0,0.05,15.600000000000001,0)" xlink:href="#F"/><use transform="matrix(0.05,0,0,0.05,21.55,0)" xlink:href="#G"/><use transform="matrix(0.05,0,0,0.05,26.55,0)" xlink:href="#H"/><use transform="matrix(0.05,0,0,0.05,36.55,0)" xlink:href="#I"/><use transform="matrix(0.05,0,0,0.05,46.55,0)" xlink:href="#J"/></g><path fill="#248814" d="M30-248c87 1 191-15 191 75 0 78-77 80-158 76V0H30v-248zm33 125c57 0 124 11 124-50 0-59-68-47-124-48v98" id="K"/><path fill="#248814" d="M108 0H70L1-190h34L89-25l56-165h34" id="L"/><path fill="#248814" d="M100-194c63 0 86 42 84 106H49c0 40 14 67 53 68 26 1 43-12 49-29l28 8c-11 28-37 45-77 45C44 4 14-33 15-96c1-61 26-98 85-98zm52 81c6-60-76-77-97-28-3 7-6 17-6 28h103" id="M"/><g id="d"><use transform="matrix(0.05,0,0,0.05,0,0)" xlink:href="#K"/><use transform="matrix(0.05,0,0,0.05,12,0)" xlink:href="#F"/><use transform="matrix(0.05,0,0,0.05,17.95,0)" xlink:href="#E"/><use transform="matrix(0.05,0,0,0.05,21.9,0)" xlink:href="#L"/><use transform="matrix(0.05,0,0,0.05,30.899999999999995,0)" xlink:href="#I"/><use transform="matrix(0.05,0,0,0.05,40.9,0)" xlink:href="#G"/><use transform="matrix(0.05,0,0,0.05,45.9,0)" xlink:href="#M"/></g><path fill="#248814" d="M212-179c-10-28-35-45-73-45-59 0-87 40-87 99 0 60 29 101 89 101 43 0 62-24 78-52l27 14C228-24 195 4 139 4 59 4 22-46 18-125c-6-104 99-153 187-111 19 9 31 26 39 46" id="N"/><path fill="#248814" d="M100-194c62-1 85 37 85 99 1 63-27 99-86 99S16-35 15-95c0-66 28-99 85-99zM99-20c44 1 53-31 53-75 0-43-8-75-51-75s-53 32-53 75 10 74 51 75" id="O"/><path fill="#248814" d="M85-194c31 0 48 13 60 33l-1-100h32l1 261h-30c-2-10 0-23-3-31C134-8 116 4 85 4 32 4 16-35 15-94c0-66 23-100 70-100zm9 24c-40 0-46 34-46 75 0 40 6 74 45 74 42 0 51-32 51-76 0-42-9-74-50-73" id="P"/><g id="e"><use transform="matrix(0.05,0,0,0.05,0,0)" xlink:href="#N"/><use transform="matrix(0.05,0,0,0.05,12.950000000000001,0)" xlink:href="#J"/><use transform="matrix(0.05,0,0,0.05,16.900000000000002,0)" xlink:href="#O"/><use transform="matrix(0.05,0,0,0.05,26.900000000000002,0)" xlink:href="#H"/><use transform="matrix(0.05,0,0,0.05,36.900000000000006,0)" xlink:href="#P"/></g><path fill="#248814" d="M115-194c53 0 69 39 70 98 0 66-23 100-70 100C84 3 66-7 56-30L54 0H23l1-261h32v101c10-23 28-34 59-34zm-8 174c40 0 45-34 45-75 0-40-5-75-45-74-42 0-51 32-51 76 0 43 10 73 51 73" id="Q"/><path fill="#248814" d="M96-169c-40 0-48 33-48 73s9 75 48 75c24 0 41-14 43-38l32 2c-6 37-31 61-74 61-59 0-76-41-82-99-10-93 101-131 147-64 4 7 5 14 7 22l-32 3c-4-21-16-35-41-35" id="R"/><g id="f"><use transform="matrix(0.05,0,0,0.05,0,0)" xlink:href="#K"/><use transform="matrix(0.05,0,0,0.05,12,0)" xlink:href="#H"/><use transform="matrix(0.05,0,0,0.05,22,0)" xlink:href="#Q"/><use transform="matrix(0.05,0,0,0.05,32,0)" xlink:href="#J"/><use transform="matrix(0.05,0,0,0.05,35.95,0)" xlink:href="#E"/><use transform="matrix(0.05,0,0,0.05,39.900000000000006,0)" xlink:href="#R"/></g><path fill="#248814" d="M185-189c-5-48-123-54-124 2 14 75 158 14 163 119 3 78-121 87-175 55-17-10-28-26-33-46l33-7c5 56 141 63 141-1 0-78-155-14-162-118-5-82 145-84 179-34 5 7 8 16 11 25" id="S"/><path fill="#248814" d="M117-194c89-4 53 116 60 194h-32v-121c0-31-8-49-39-48C34-167 62-67 57 0H25l-1-190h30c1 10-1 24 2 32 11-22 29-35 61-36" id="T"/><g id="g"><use transform="matrix(0.05,0,0,0.05,0,0)" xlink:href="#S"/><use transform="matrix(0.05,0,0,0.05,12,0)" xlink:href="#H"/><use transform="matrix(0.05,0,0,0.05,22,0)" xlink:href="#Q"/><use transform="matrix(0.05,0,0,0.05,32,0)" xlink:href="#T"/><use transform="matrix(0.05,0,0,0.05,42,0)" xlink:href="#M"/><use transform="matrix(0.05,0,0,0.05,52,0)" xlink:href="#G"/></g><path d="M190 0L58-211 59 0H30v-248h39L202-35l-2-213h31V0h-41" id="U"/><path d="M205 0l-28-72H64L36 0H1l101-248h38L239 0h-34zm-38-99l-47-123c-12 45-31 82-46 123h93" id="V"/><path d="M127-220V0H93v-220H8v-28h204v28h-85" id="W"/><g id="h"><use transform="matrix(0.05,0,0,0.05,0,0)" xlink:href="#U"/><use transform="matrix(0.05,0,0,0.05,12.950000000000001,0)" xlink:href="#V"/><use transform="matrix(0.05,0,0,0.05,23.6,0)" xlink:href="#W"/></g><path d="M177-190C167-65 218 103 67 71c-23-6-38-20-44-43l32-5c15 47 100 32 89-28v-30C133-14 115 1 83 1 29 1 15-40 15-95c0-56 16-97 71-98 29-1 48 16 59 35 1-10 0-23 2-32h30zM94-22c36 0 50-32 50-73 0-42-14-75-50-75-39 0-46 34-46 75s6 73 46 73" id="X"/><path d="M141-36C126-15 110 5 73 4 37 3 15-17 15-53c-1-64 63-63 125-63 3-35-9-54-41-54-24 1-41 7-42 31l-33-3c5-37 33-52 76-52 45 0 72 20 72 64v82c-1 20 7 32 28 27v20c-31 9-61-2-59-35zM48-53c0 20 12 33 32 33 41-3 63-29 60-74-43 2-92-5-92 41" id="Y"/><path d="M59-47c-2 24 18 29 38 22v24C64 9 27 4 27-40v-127H5v-23h24l9-43h21v43h35v23H59v120" id="Z"/><path d="M100-194c63 0 86 42 84 106H49c0 40 14 67 53 68 26 1 43-12 49-29l28 8c-11 28-37 45-77 45C44 4 14-33 15-96c1-61 26-98 85-98zm52 81c6-60-76-77-97-28-3 7-6 17-6 28h103" id="aa"/><path d="M206 0h-36l-40-164L89 0H53L-1-190h32L70-26l43-164h34l41 164 42-164h31" id="ab"/><path d="M179-190L93 31C79 59 56 82 12 73V49c39 6 53-20 64-50L1-190h34L92-34l54-156h33" id="ac"/><g id="i"><use transform="matrix(0.05,0,0,0.05,0,0)" xlink:href="#X"/><use transform="matrix(0.05,0,0,0.05,10,0)" xlink:href="#Y"/><use transform="matrix(0.05,0,0,0.05,20,0)" xlink:href="#Z"/><use transform="matrix(0.05,0,0,0.05,25,0)" xlink:href="#aa"/><use transform="matrix(0.05,0,0,0.05,35,0)" xlink:href="#ab"/><use transform="matrix(0.05,0,0,0.05,47.95,0)" xlink:href="#Y"/><use transform="matrix(0.05,0,0,0.05,57.95,0)" xlink:href="#ac"/></g><path d="M24-248c93 1 206-16 204 79-1 75-69 88-152 82V0H24v-248zm52 121c47 0 100 7 100-41 0-47-54-39-100-39v80" id="ad"/><path d="M85 4C-2 5 27-109 22-190h50c7 57-23 150 33 157 60-5 35-97 40-157h50l1 190h-47c-2-12 1-28-3-38-12 25-28 42-61 42" id="ae"/><path d="M135-194c52 0 70 43 70 98 0 56-19 99-73 100-30 1-46-15-58-35L72 0H24l1-261h50v104c11-23 29-37 60-37zM114-30c31 0 40-27 40-66 0-37-7-63-39-63s-41 28-41 65c0 36 8 64 40 64" id="af"/><path d="M25 0v-261h50V0H25" id="ag"/><path d="M25-224v-37h50v37H25zM25 0v-190h50V0H25" id="ah"/><path d="M190-63c-7 42-38 67-86 67-59 0-84-38-90-98-12-110 154-137 174-36l-49 2c-2-19-15-32-35-32-30 0-35 28-38 64-6 74 65 87 74 30" id="ai"/><g id="j"><use transform="matrix(0.05,0,0,0.05,0,0)" xlink:href="#ad"/><use transform="matrix(0.05,0,0,0.05,12,0)" xlink:href="#ae"/><use transform="matrix(0.05,0,0,0.05,22.950000000000003,0)" xlink:href="#af"/><use transform="matrix(0.05,0,0,0.05,33.900000000000006,0)" xlink:href="#ag"/><use transform="matrix(0.05,0,0,0.05,38.900000000000006,0)" xlink:href="#ah"/><use transform="matrix(0.05,0,0,0.05,43.900000000000006,0)" xlink:href="#ai"/></g><path d="M137-138c1-29-70-34-71-4 15 46 118 7 119 86 1 83-164 76-172 9l43-7c4 19 20 25 44 25 33 8 57-30 24-41C81-84 22-81 20-136c-2-80 154-74 161-7" id="aj"/><path d="M135-194c87-1 58 113 63 194h-50c-7-57 23-157-34-157-59 0-34 97-39 157H25l-1-190h47c2 12-1 28 3 38 12-26 28-41 61-42" id="ak"/><path d="M185-48c-13 30-37 53-82 52C43 2 14-33 14-96s30-98 90-98c62 0 83 45 84 108H66c0 31 8 55 39 56 18 0 30-7 34-22zm-45-69c5-46-57-63-70-21-2 6-4 13-4 21h74" id="al"/><path d="M115-3C79 11 28 4 28-45v-112H4v-33h27l15-45h31v45h36v33H77v99c-1 23 16 31 38 25v30" id="am"/><g id="k"><use transform="matrix(0.05,0,0,0.05,0,0)" xlink:href="#aj"/><use transform="matrix(0.05,0,0,0.05,10,0)" xlink:href="#ae"/><use transform="matrix(0.05,0,0,0.05,20.950000000000003,0)" xlink:href="#af"/><use transform="matrix(0.05,0,0,0.05,31.900000000000006,0)" xlink:href="#ak"/><use transform="matrix(0.05,0,0,0.05,42.85000000000001,0)" xlink:href="#al"/><use transform="matrix(0.05,0,0,0.05,52.85,0)" xlink:href="#am"/></g><path d="M23 0v-37h61v-169l-59 37v-38l62-41h46v211h57V0H23" id="an"/><path d="M101-251c68 0 84 54 84 127C185-50 166 4 99 4S15-52 14-124c-1-75 17-127 87-127zm-1 216c37-5 36-46 36-89s4-89-36-89c-39 0-36 45-36 89 0 43-3 85 36 89" id="ao"/><path d="M24 0v-54h51V0H24" id="ap"/><path d="M4 7l51-268h42L46 7H4" id="aq"/><path d="M182-182c0 78-84 86-111 141h115V0H12c-6-101 99-100 120-180 1-22-12-31-33-32-23 0-32 14-35 34l-49-3c5-45 32-70 84-70 51 0 83 22 83 69" id="ar"/><path d="M165-50V0h-47v-50H5v-38l105-160h55v161h33v37h-33zm-47-37l2-116L46-87h72" id="as"/><g id="l"><use transform="matrix(0.05,0,0,0.05,0,0)" xlink:href="#an"/><use transform="matrix(0.05,0,0,0.05,10,0)" xlink:href="#ao"/><use transform="matrix(0.05,0,0,0.05,20,0)" xlink:href="#ap"/><use transform="matrix(0.05,0,0,0.05,25,0)" xlink:href="#ao"/><use transform="matrix(0.05,0,0,0.05,35,0)" xlink:href="#ap"/><use transform="matrix(0.05,0,0,0.05,40,0)" xlink:href="#ao"/><use transform="matrix(0.05,0,0,0.05,50,0)" xlink:href="#ap"/><use transform="matrix(0.05,0,0,0.05,55,0)" xlink:href="#ao"/><use transform="matrix(0.05,0,0,0.05,65,0)" xlink:href="#aq"/><use transform="matrix(0.05,0,0,0.05,70,0)" xlink:href="#ar"/><use transform="matrix(0.05,0,0,0.05,80,0)" xlink:href="#as"/></g><path d="M33 0v-248h34V0H33" id="at"/><path d="M117-194c89-4 53 116 60 194h-32v-121c0-31-8-49-39-48C34-167 62-67 57 0H25l-1-190h30c1 10-1 24 2 32 11-22 29-35 61-36" id="au"/><path d="M114-163C36-179 61-72 57 0H25l-1-190h30c1 12-1 29 2 39 6-27 23-49 58-41v29" id="av"/><g id="m"><use transform="matrix(0.05,0,0,0.05,0,0)" xlink:href="#at"/><use transform="matrix(0.05,0,0,0.05,5,0)" xlink:href="#au"/><use transform="matrix(0.05,0,0,0.05,15,0)" xlink:href="#Z"/><use transform="matrix(0.05,0,0,0.05,20,0)" xlink:href="#aa"/><use transform="matrix(0.05,0,0,0.05,30,0)" xlink:href="#av"/><use transform="matrix(0.05,0,0,0.05,35.95,0)" xlink:href="#au"/><use transform="matrix(0.05,0,0,0.05,45.95,0)" xlink:href="#aa"/><use transform="matrix(0.05,0,0,0.05,55.95,0)" xlink:href="#Z"/></g><path fill="#147eba" d="M30-248c87 1 191-15 191 75 0 78-77 80-158 76V0H30v-248zm33 125c57 0 124 11 124-50 0-59-68-47-124-48v98" id="aw"/><path fill="#147eba" d="M114-163C36-179 61-72 57 0H25l-1-190h30c1 12-1 29 2 39 6-27 23-49 58-41v29" id="ax"/><path fill="#147eba" d="M24-231v-30h32v30H24zM24 0v-190h32V0H24" id="ay"/><path fill="#147eba" d="M108 0H70L1-190h34L89-25l56-165h34" id="az"/><path fill="#147eba" d="M141-36C126-15 110 5 73 4 37 3 15-17 15-53c-1-64 63-63 125-63 3-35-9-54-41-54-24 1-41 7-42 31l-33-3c5-37 33-52 76-52 45 0 72 20 72 64v82c-1 20 7 32 28 27v20c-31 9-61-2-59-35zM48-53c0 20 12 33 32 33 41-3 63-29 60-74-43 2-92-5-92 41" id="aA"/><path fill="#147eba" d="M59-47c-2 24 18 29 38 22v24C64 9 27 4 27-40v-127H5v-23h24l9-43h21v43h35v23H59v120" id="aB"/><path fill="#147eba" d="M100-194c63 0 86 42 84 106H49c0 40 14 67 53 68 26 1 43-12 49-29l28 8c-11 28-37 45-77 45C44 4 14-33 15-96c1-61 26-98 85-98zm52 81c6-60-76-77-97-28-3 7-6 17-6 28h103" id="aC"/><g id="n"><use transform="matrix(0.05,0,0,0.05,0,0)" xlink:href="#aw"/><use transform="matrix(0.05,0,0,0.05,12,0)" xlink:href="#ax"/><use transform="matrix(0.05,0,0,0.05,17.95,0)" xlink:href="#ay"/><use transform="matrix(0.05,0,0,0.05,21.9,0)" xlink:href="#az"/><use transform="matrix(0.05,0,0,0.05,30.899999999999995,0)" xlink:href="#aA"/><use transform="matrix(0.05,0,0,0.05,40.9,0)" xlink:href="#aB"/><use transform="matrix(0.05,0,0,0.05,45.9,0)" xlink:href="#aC"/></g><path fill="#147eba" d="M185-189c-5-48-123-54-124 2 14 75 158 14 163 119 3 78-121 87-175 55-17-10-28-26-33-46l33-7c5 56 141 63 141-1 0-78-155-14-162-118-5-82 145-84 179-34 5 7 8 16 11 25" id="aD"/><path fill="#147eba" d="M84 4C-5 8 30-112 23-190h32v120c0 31 7 50 39 49 72-2 45-101 50-169h31l1 190h-30c-1-10 1-25-2-33-11 22-28 36-60 37" id="aE"/><path fill="#147eba" d="M115-194c53 0 69 39 70 98 0 66-23 100-70 100C84 3 66-7 56-30L54 0H23l1-261h32v101c10-23 28-34 59-34zm-8 174c40 0 45-34 45-75 0-40-5-75-45-74-42 0-51 32-51 76 0 43 10 73 51 73" id="aF"/><path fill="#147eba" d="M117-194c89-4 53 116 60 194h-32v-121c0-31-8-49-39-48C34-167 62-67 57 0H25l-1-190h30c1 10-1 24 2 32 11-22 29-35 61-36" id="aG"/><g id="o"><use transform="matrix(0.05,0,0,0.05,0,0)" xlink:href="#aD"/><use transform="matrix(0.05,0,0,0.05,12,0)" xlink:href="#aE"/><use transform="matrix(0.05,0,0,0.05,22,0)" xlink:href="#aF"/><use transform="matrix(0.05,0,0,0.05,32,0)" xlink:href="#aG"/><use transform="matrix(0.05,0,0,0.05,42,0)" xlink:href="#aC"/><use transform="matrix(0.05,0,0,0.05,52,0)" xlink:href="#aB"/></g><path d="M135-150c-39-12-60 13-60 57V0H25l-1-190h47c2 13-1 29 3 40 6-28 27-53 61-41v41" id="aH"/><path d="M128 0H69L1-190h53L99-40l48-150h52" id="aI"/><path d="M133-34C117-15 103 5 69 4 32 3 11-16 11-54c-1-60 55-63 116-61 1-26-3-47-28-47-18 1-26 9-28 27l-52-2c7-38 36-58 82-57s74 22 75 68l1 82c-1 14 12 18 25 15v27c-30 8-71 5-69-32zm-48 3c29 0 43-24 42-57-32 0-66-3-65 30 0 17 8 27 23 27" id="aJ"/><g id="p"><use transform="matrix(0.05,0,0,0.05,0,0)" xlink:href="#ad"/><use transform="matrix(0.05,0,0,0.05,12,0)" xlink:href="#aH"/><use transform="matrix(0.05,0,0,0.05,19,0)" xlink:href="#ah"/><use transform="matrix(0.05,0,0,0.05,24,0)" xlink:href="#aI"/><use transform="matrix(0.05,0,0,0.05,34,0)" xlink:href="#aJ"/><use transform="matrix(0.05,0,0,0.05,44,0)" xlink:href="#am"/><use transform="matrix(0.05,0,0,0.05,49.95,0)" xlink:href="#al"/></g><g id="q"><use transform="matrix(0.05,0,0,0.05,0,0)" xlink:href="#an"/><use transform="matrix(0.05,0,0,0.05,10,0)" xlink:href="#ao"/><use transform="matrix(0.05,0,0,0.05,20,0)" xlink:href="#ap"/><use transform="matrix(0.05,0,0,0.05,25,0)" xlink:href="#ao"/><use transform="matrix(0.05,0,0,0.05,35,0)" xlink:href="#ap"/><use transform="matrix(0.05,0,0,0.05,40,0)" xlink:href="#an"/><use transform="matrix(0.05,0,0,0.05,50,0)" xlink:href="#ap"/><use transform="matrix(0.05,0,0,0.05,55,0)" xlink:href="#ao"/><use transform="matrix(0.05,0,0,0.05,65,0)" xlink:href="#aq"/><use transform="matrix(0.05,0,0,0.05,70,0)" xlink:href="#ar"/><use transform="matrix(0.05,0,0,0.05,80,0)" xlink:href="#as"/></g><path d="M115-194c53 0 69 39 70 98 0 66-23 100-70 100C84 3 66-7 56-30L54 0H23l1-261h32v101c10-23 28-34 59-34zm-8 174c40 0 45-34 45-75 0-40-5-75-45-74-42 0-51 32-51 76 0 43 10 73 51 73" id="aK"/><path d="M84 4C-5 8 30-112 23-190h32v120c0 31 7 50 39 49 72-2 45-101 50-169h31l1 190h-30c-1-10 1-25-2-33-11 22-28 36-60 37" id="aL"/><path d="M24-231v-30h32v30H24zM24 0v-190h32V0H24" id="aM"/><path d="M24 0v-261h32V0H24" id="aN"/><path d="M85-194c31 0 48 13 60 33l-1-100h32l1 261h-30c-2-10 0-23-3-31C134-8 116 4 85 4 32 4 16-35 15-94c0-66 23-100 70-100zm9 24c-40 0-46 34-46 75 0 40 6 74 45 74 42 0 51-32 51-76 0-42-9-74-50-73" id="aO"/><g id="r"><use transform="matrix(0.05,0,0,0.05,0,0)" xlink:href="#aK"/><use transform="matrix(0.05,0,0,0.05,10,0)" xlink:href="#aL"/><use transform="matrix(0.05,0,0,0.05,20,0)" xlink:href="#aM"/><use transform="matrix(0.05,0,0,0.05,23.95,0)" xlink:href="#aN"/><use transform="matrix(0.05,0,0,0.05,27.899999999999995,0)" xlink:href="#aO"/></g><path d="M210-169c-67 3-38 105-44 169h-31v-121c0-29-5-50-35-48C34-165 62-65 56 0H25l-1-190h30c1 10-1 24 2 32 10-44 99-50 107 0 11-21 27-35 58-36 85-2 47 119 55 194h-31v-121c0-29-5-49-35-48" id="aP"/><path d="M96-169c-40 0-48 33-48 73s9 75 48 75c24 0 41-14 43-38l32 2c-6 37-31 61-74 61-59 0-76-41-82-99-10-93 101-131 147-64 4 7 5 14 7 22l-32 3c-4-21-16-35-41-35" id="aQ"/><path d="M106-169C34-169 62-67 57 0H25v-261h32l-1 103c12-21 28-36 61-36 89 0 53 116 60 194h-32v-121c2-32-8-49-39-48" id="aR"/><path d="M135-143c-3-34-86-38-87 0 15 53 115 12 119 90S17 21 10-45l28-5c4 36 97 45 98 0-10-56-113-15-118-90-4-57 82-63 122-42 12 7 21 19 24 35" id="aS"/><g id="s"><use transform="matrix(0.05,0,0,0.05,0,0)" xlink:href="#aP"/><use transform="matrix(0.05,0,0,0.05,14.950000000000001,0)" xlink:href="#Y"/><use transform="matrix(0.05,0,0,0.05,24.950000000000003,0)" xlink:href="#aQ"/><use transform="matrix(0.05,0,0,0.05,33.95,0)" xlink:href="#aR"/><use transform="matrix(0.05,0,0,0.05,43.95,0)" xlink:href="#aM"/><use transform="matrix(0.05,0,0,0.05,47.900000000000006,0)" xlink:href="#au"/><use transform="matrix(0.05,0,0,0.05,57.900000000000006,0)" xlink:href="#aa"/><use transform="matrix(0.05,0,0,0.05,67.9,0)" xlink:href="#aS"/></g><g id="t"><use transform="matrix(0.05,0,0,0.05,0,0)" xlink:href="#av"/><use transform="matrix(0.05,0,0,0.05,5.95,0)" xlink:href="#aL"/><use transform="matrix(0.05,0,0,0.05,15.949999999999998,0)" xlink:href="#au"/><use transform="matrix(0.05,0,0,0.05,25.950000000000003,0)" xlink:href="#au"/><use transform="matrix(0.05,0,0,0.05,35.95,0)" xlink:href="#aa"/><use transform="matrix(0.05,0,0,0.05,45.95,0)" xlink:href="#av"/><use transform="matrix(0.05,0,0,0.05,51.900000000000006,0)" xlink:href="#aS"/></g><path d="M233-177c-1 41-23 64-60 70L243 0h-38l-65-103H63V0H30v-248c88 3 205-21 203 71zM63-129c60-2 137 13 137-47 0-61-80-42-137-45v92" id="aT"/><path d="M100-194c62-1 85 37 85 99 1 63-27 99-86 99S16-35 15-95c0-66 28-99 85-99zM99-20c44 1 53-31 53-75 0-43-8-75-51-75s-53 32-53 75 10 74 51 75" id="aU"/><g id="u"><use transform="matrix(0.05,0,0,0.05,0,0)" xlink:href="#aT"/><use transform="matrix(0.05,0,0,0.05,12.950000000000001,0)" xlink:href="#aU"/><use transform="matrix(0.05,0,0,0.05,22.950000000000003,0)" xlink:href="#aL"/><use transform="matrix(0.05,0,0,0.05,32.95,0)" xlink:href="#Z"/><use transform="matrix(0.05,0,0,0.05,37.95,0)" xlink:href="#aa"/><use transform="matrix(0.05,0,0,0.05,47.95,0)" xlink:href="#av"/></g></defs></g></svg>
